<svg xmlns="http://www.w3.org/2000/svg" width="18px" viewBox="0 0 18.18 16.79"><defs><style>.share-line.cls-1{fill:none;clip-rule:evenodd}.cls-4{fill:gray}</style><clipPath id="clip-path"><path class="share-line cls-1" d="M7.82 6.33H7.4a.13.13 0 0 0-.12.12v2.67a.12.12 0 0 0 .12.11h.42a.11.11 0 0 0 .12-.11V6.45a.12.12 0 0 0-.12-.12"/></clipPath><clipPath id="clip-path-2"><path class="share-line cls-1" d="M10.73 6.33h-.42a.12.12 0 0 0-.12.12V8L9 6.39h-.53a.12.12 0 0 0-.12.12v2.61a.11.11 0 0 0 .12.11h.42A.11.11 0 0 0 9 9.12V7.53l1.2 1.65h.49a.11.11 0 0 0 .12-.11V6.45a.12.12 0 0 0-.12-.12"/></clipPath><clipPath id="clip-path-3"><path class="share-line cls-1" d="M6.81 8.57H5.66V6.45a.13.13 0 0 0-.12-.12h-.42a.12.12 0 0 0-.12.12v2.67a.11.11 0 0 0 0 .08.11.11 0 0 0 .08 0h1.73a.11.11 0 0 0 .11-.11v-.4a.11.11 0 0 0-.11-.12"/></clipPath><clipPath id="clip-path-4"><path class="share-line cls-1" d="M13.06 7a.12.12 0 0 0 .12-.12v-.43a.12.12 0 0 0-.12-.12h-1.68a.12.12 0 0 0-.08 0 .11.11 0 0 0 0 .08v2.71a.11.11 0 0 0 0 .08.11.11 0 0 0 .08 0h1.68a.11.11 0 0 0 .12-.11v-.4a.12.12 0 0 0-.12-.12h-1.14v-.45h1.14a.12.12 0 0 0 .12-.12v-.43a.12.12 0 0 0-.12-.12h-1.14V7z"/></clipPath></defs><g id="圖層_2" data-name="圖層 2"><g id="圖層_1-2" data-name="圖層 1"><path d="M13.76 0H4.39A3.62 3.62 0 0 0 .8 3.64v9.51a3.62 3.62 0 0 0 3.59 3.64h9.37a3.62 3.62 0 0 0 3.59-3.64V3.64A3.62 3.62 0 0 0 13.76 0zm0 10.71a19.76 19.76 0 0 1-4.73 3.55c-.65.27-.55-.18-.52-.33s.08-.53.08-.53a1.28 1.28 0 0 0 0-.55c-.07-.17-.33-.26-.53-.3-2.89-.39-5-2.44-5-4.89 0-2.74 2.71-5 6-5s6 2.22 6 5a4.46 4.46 0 0 1-1.28 3.05z" fill-rule="evenodd" fill="gray"/><g clip-path="url(#clip-path)"><path class="cls-4" d="M2.28 1.33h10.66v12.9H2.28z"/></g><g clip-path="url(#clip-path-2)"><path class="cls-4" d="M3.35 1.33h12.5v12.9H3.35z"/></g><g clip-path="url(#clip-path-3)"><path class="cls-4" d="M0 1.33h11.92v12.9H0z"/></g><g clip-path="url(#clip-path-4)"><path class="cls-4" d="M6.26 1.33h11.92v12.9H6.26z"/></g></g></g></svg>
