<svg xmlns="http://www.w3.org/2000/svg" width="18px" viewBox="0 0 18 14"><g data-name="圖層 2"><path d="M5.65 14A10.2 10.2 0 0 0 16.16 4v-.51A7.27 7.27 0 0 0 18 1.66a7.86 7.86 0 0 1-2.13.56 3.58 3.58 0 0 0 1.63-2 7.43 7.43 0 0 1-2.35.86A3.74 3.74 0 0 0 12.46 0a3.61 3.61 0 0 0-3.69 3.53 3.59 3.59 0 0 0 .09.81A10.64 10.64 0 0 1 1.25.65a3.38 3.38 0 0 0-.5 1.78 3.51 3.51 0 0 0 1.64 2.94 3.91 3.91 0 0 1-1.67-.44V5a3.59 3.59 0 0 0 3 3.47 3.85 3.85 0 0 1-1 .12A3.85 3.85 0 0 1 2 8.5 3.64 3.64 0 0 0 5.47 11a7.57 7.57 0 0 1-4.59 1.47 6.4 6.4 0 0 1-.88-.05A10.87 10.87 0 0 0 5.65 14" fill="gray" fill-rule="evenodd" data-name="圖層 1"/></g></svg>
